<?xml version="1.0" encoding="utf-8"?>
<!-- Generator: Adobe Illustrator 19.0.0, SVG Export Plug-In . SVG Version: 6.00 Build 0)  -->
<svg version="1.1" id="Layer_1" xmlns="http://www.w3.org/2000/svg" xmlns:xlink="http://www.w3.org/1999/xlink" x="0px" y="0px"
	 viewBox="-555.2 406.1 9.3 28.9" style="enable-background:new -555.2 406.1 9.3 28.9;" xml:space="preserve">
<style type="text/css">
	.st0{fill:#EEEEEE;}
</style>
<title>eye</title>
<desc>Created with Sketch.</desc>
<g>
	<path class="st0" d="M-555.2,435v-0.4c0.3,0,0.7-0.1,1-0.1c0.3,0,0.6-0.1,0.9-0.2c0.3-0.1,0.5-0.2,0.7-0.4c0.2-0.2,0.3-0.4,0.3-0.6
		V419c0-0.2,0-0.4-0.1-0.6c0-0.2-0.2-0.3-0.4-0.5c-0.3-0.2-0.5-0.3-0.9-0.5c-0.3-0.2-0.7-0.3-1.1-0.5v-0.3l5.6-1.8h0.2v18.6
		c0.1,0.3,0.2,0.5,0.4,0.6s0.4,0.2,0.6,0.3c0.3,0.1,0.5,0.1,0.8,0.1c0.3,0,0.6,0,0.9,0.1v0.4H-555.2z M-549.3,409.9
		c-0.4,0.4-1,0.6-1.6,0.6c-0.6,0-1.1-0.2-1.6-0.7c-0.4-0.4-0.7-1-0.7-1.6c0-0.6,0.2-1.2,0.6-1.6c0.4-0.4,1-0.6,1.6-0.6
		s1.2,0.2,1.6,0.6c0.4,0.4,0.6,0.9,0.6,1.6C-548.6,409-548.8,409.5-549.3,409.9z"/>
</g>
</svg>
